<svg width="16" height="16" viewBox="0 0 16 16" fill="none" xmlns="http://www.w3.org/2000/svg">
<path d="M-6.99382e-07 8C-6.511e-07 8.55229 0.447714 9 0.999999 9L12.17 9L7.28961 13.8804C6.89811 14.2719 6.89963 14.9074 7.29251 15.2975C7.68343 15.6857 8.31506 15.6849 8.70461 15.2954L15.2929 8.70711C15.6834 8.31658 15.6834 7.68342 15.2929 7.29289L8.70531 0.705315C8.31578 0.31578 7.68422 0.315781 7.29468 0.705316C6.9054 1.0946 6.90511 1.72568 7.29405 2.11532L12.17 7L0.999998 7C0.447713 7 -7.47665e-07 7.44772 -6.99382e-07 8Z" fill="white"/>
</svg>