<svg width="12" height="11" viewBox="0 0 12 11" fill="none" xmlns="http://www.w3.org/2000/svg">
<g clip-path="url(#clip0_1619_11233)">
<path d="M1.95122 11H8.09756C8.61498 11 9.1115 10.7996 9.47735 10.443C9.84321 10.0864 10.0488 9.60238 10.0488 9.098V3.80406C10.0488 3.29968 9.84321 2.81597 9.47735 2.45906C9.1115 2.10215 8.61498 1.90204 8.09756 1.90204H1.95122C1.4338 1.90204 0.937573 2.10243 0.571429 2.45906C0.205575 2.81597 0 3.29968 0 3.80406V9.098C0 9.60238 0.205575 10.0861 0.571429 10.443C0.937282 10.7999 1.4338 11 1.95122 11ZM1.30081 3.80406C1.30081 3.63593 1.36934 3.4746 1.49129 3.35572C1.61324 3.23685 1.77875 3.17005 1.95122 3.17005H8.09756C8.27149 3.16552 8.43961 3.23119 8.56243 3.35091C8.68525 3.47064 8.75261 3.63452 8.74797 3.80406V9.098C8.75261 9.26726 8.68525 9.43114 8.56243 9.55115C8.43961 9.67116 8.27149 9.73654 8.09756 9.73201H1.95122C1.77875 9.73201 1.61324 9.66521 1.49129 9.54634C1.36934 9.42746 1.30081 9.26613 1.30081 9.098V3.80406Z" fill="#6949FF"/>
<path d="M9.72357 0H2.86178C2.68931 0 2.5238 0.066797 2.40185 0.185673C2.2799 0.304549 2.21138 0.465881 2.21138 0.634006C2.20673 0.803546 2.27409 0.967425 2.39692 1.08715C2.51974 1.20688 2.68786 1.27254 2.86178 1.26801H9.72357C9.98228 1.26801 10.2305 1.36821 10.4135 1.54652C10.5964 1.72484 10.6992 1.96683 10.6992 2.21902V8.19452C10.6992 8.42095 10.8232 8.6304 11.0244 8.74362C11.2256 8.85683 11.4736 8.85683 11.6748 8.74362C11.876 8.6304 12 8.42124 12 8.19452V2.21902C12 1.63058 11.7602 1.06621 11.333 0.650139C10.9062 0.234073 10.3272 0 9.72328 0L9.72357 0Z" fill="#6949FF"/>
</g>
<defs>
<clipPath id="clip0_1619_11233">
<rect width="12" height="11" fill="white"/>
</clipPath>
</defs>
</svg>
