<svg width="16" height="17" viewBox="0 0 16 17" fill="none" xmlns="http://www.w3.org/2000/svg">
<path d="M8 16.5C12.418 16.5 16 12.918 16 8.5C16 4.082 12.418 0.5 8 0.5C3.582 0.5 0 4.082 0 8.5C0 12.918 3.582 16.5 8 16.5ZM7.11371 4.37314C7.11371 3.88371 7.51057 3.48686 8 3.48686C8.48943 3.48686 8.88629 3.88371 8.88629 4.37314V9.96914C8.88629 10.4586 8.48943 10.8554 8 10.8554C7.51057 10.8554 7.11371 10.4586 7.11371 9.96914V4.37314ZM7.11629 12.288C7.15 12.0977 7.32257 11.9251 7.51286 11.8914C7.62829 11.8723 7.78543 11.8543 8 11.854C8.21429 11.854 8.37143 11.872 8.48714 11.8914C8.67743 11.9251 8.85 12.0977 8.88371 12.288C8.90286 12.4034 8.92086 12.5606 8.92114 12.7751C8.92114 12.9894 8.90314 13.1466 8.88371 13.2623C8.85 13.4526 8.67743 13.6251 8.48714 13.6589C8.37171 13.678 8.21457 13.696 8 13.6963C7.78571 13.6963 7.62857 13.6783 7.51286 13.6589C7.32257 13.6251 7.15 13.4526 7.11629 13.2623C7.09714 13.1469 7.07914 12.9897 7.07886 12.7751C7.07886 12.5609 7.09686 12.4037 7.11629 12.288Z" fill="currentColor"/>
</svg>
