<svg width="100" height="100" viewBox="0 0 100 100" fill="none" xmlns="http://www.w3.org/2000/svg">
<g clip-path="url(#clip0_184_4815)">
<rect width="100" height="100" rx="8" fill="#F9F1FF"/>
<g style="mix-blend-mode:hard-light" filter="url(#filter0_d_184_4815)">
<circle cx="73.5" cy="90.5" r="59.5" fill="url(#paint0_linear_184_4815)" fill-opacity="0.3" shape-rendering="crispEdges"/>
</g>
<g style="mix-blend-mode:hard-light" opacity="0.6" filter="url(#filter1_d_184_4815)">
<circle cx="26.5" cy="8.5" r="59.5" fill="url(#paint1_linear_184_4815)" fill-opacity="0.3" shape-rendering="crispEdges"/>
</g>
<rect x="9" y="24" width="82" height="52" rx="4" fill="url(#paint2_linear_184_4815)"/>
<g style="mix-blend-mode:multiply" opacity="0.3">
<rect x="9.5" y="24.5" width="81" height="51" rx="3.5" stroke="url(#paint3_linear_184_4815)"/>
</g>
<g filter="url(#filter2_d_184_4815)">
<g filter="url(#filter3_d_184_4815)">
<path fill-rule="evenodd" clip-rule="evenodd" d="M65.8946 57.5638L85.4397 69.0221C86.4047 69.6252 86.0429 71.0726 84.9569 71.1929L76.1437 72.6068C75.538 72.7039 75.0103 73.0738 74.7123 73.6101L70.3585 81.4452C69.8757 82.2895 68.4278 82.1692 68.3074 81.0835L64.0849 58.7699C63.9645 57.8052 65.0499 57.0811 65.8946 57.5638Z" fill="url(#paint4_linear_184_4815)"/>
</g>
<path fill-rule="evenodd" clip-rule="evenodd" d="M58.5349 47.3117L62.1542 52.3773C62.7574 53.342 61.3096 54.4277 60.586 53.463L57.087 48.3974C56.3634 47.4327 57.9316 46.3469 58.5349 47.3117Z" fill="url(#paint5_linear_184_4815)"/>
<path fill-rule="evenodd" clip-rule="evenodd" d="M67.5839 46.1054L66.4979 52.1364C66.2564 53.3425 64.5672 52.9808 64.6882 51.8951L65.7743 45.7438C66.0157 44.5377 67.8254 44.8994 67.5839 46.1054Z" fill="url(#paint6_linear_184_4815)"/>
<path fill-rule="evenodd" clip-rule="evenodd" d="M74.8229 51.5328C74.823 51.5328 74.823 51.5329 74.8229 51.5329L69.8764 55.151C68.7903 55.754 67.8253 54.3066 68.7903 53.5832L73.8575 50.0854C74.8224 49.3621 75.9084 50.9294 74.8228 51.5326C74.8228 51.5326 74.8228 51.5328 74.8229 51.5328Z" fill="url(#paint7_linear_184_4815)"/>
<path fill-rule="evenodd" clip-rule="evenodd" d="M53.1059 54.6692C53.1059 54.6691 53.1061 54.6689 53.1062 54.669L59.1388 55.7546C60.3452 55.875 59.9834 57.6847 58.8974 57.4434L52.7441 56.4787C51.5378 56.2373 51.8994 54.4286 53.1056 54.6695C53.1057 54.6695 53.1059 54.6694 53.1059 54.6692Z" fill="url(#paint8_linear_184_4815)"/>
<path fill-rule="evenodd" clip-rule="evenodd" d="M54.3124 63.7146L59.3796 60.0964C60.3446 59.4933 61.4307 60.9408 60.4656 61.6641L55.3984 65.162C54.4334 65.886 53.3474 64.3176 54.3124 63.7146Z" fill="url(#paint9_linear_184_4815)"/>
</g>
<g opacity="0.2">
<rect x="16" y="32" width="14" height="4" rx="2" fill="url(#paint10_linear_184_4815)"/>
<rect x="33" y="32" width="32" height="4" rx="2" fill="url(#paint11_linear_184_4815)"/>
<rect x="16" y="40" width="26" height="4" rx="2" fill="url(#paint12_linear_184_4815)"/>
<rect x="16" y="48" width="36" height="4" rx="2" fill="url(#paint13_linear_184_4815)"/>
<rect x="16" y="56" width="20" height="4" rx="2" fill="url(#paint14_linear_184_4815)"/>
</g>
<g opacity="0.5">
<rect x="16" y="32" width="14" height="4" rx="2" fill="url(#paint15_linear_184_4815)"/>
<rect x="33" y="32" width="32" height="4" rx="2" fill="url(#paint16_linear_184_4815)"/>
<rect x="16" y="40" width="26" height="4" rx="2" fill="url(#paint17_linear_184_4815)"/>
<rect x="16" y="48" width="36" height="4" rx="2" fill="url(#paint18_linear_184_4815)"/>
<rect x="16" y="56" width="20" height="4" rx="2" fill="url(#paint19_linear_184_4815)"/>
</g>
</g>
<defs>
<filter id="filter0_d_184_4815" x="-9" y="14" width="165" height="165" filterUnits="userSpaceOnUse" color-interpolation-filters="sRGB">
<feFlood flood-opacity="0" result="BackgroundImageFix"/>
<feColorMatrix in="SourceAlpha" type="matrix" values="0 0 0 0 0 0 0 0 0 0 0 0 0 0 0 0 0 0 127 0" result="hardAlpha"/>
<feOffset dy="6"/>
<feGaussianBlur stdDeviation="11.5"/>
<feComposite in2="hardAlpha" operator="out"/>
<feColorMatrix type="matrix" values="0 0 0 0 0.477319 0 0 0 0 0.222535 0 0 0 0 0.920833 0 0 0 0.2 0"/>
<feBlend mode="normal" in2="BackgroundImageFix" result="effect1_dropShadow_184_4815"/>
<feBlend mode="normal" in="SourceGraphic" in2="effect1_dropShadow_184_4815" result="shape"/>
</filter>
<filter id="filter1_d_184_4815" x="-56" y="-68" width="165" height="165" filterUnits="userSpaceOnUse" color-interpolation-filters="sRGB">
<feFlood flood-opacity="0" result="BackgroundImageFix"/>
<feColorMatrix in="SourceAlpha" type="matrix" values="0 0 0 0 0 0 0 0 0 0 0 0 0 0 0 0 0 0 127 0" result="hardAlpha"/>
<feOffset dy="6"/>
<feGaussianBlur stdDeviation="11.5"/>
<feComposite in2="hardAlpha" operator="out"/>
<feColorMatrix type="matrix" values="0 0 0 0 0.477319 0 0 0 0 0.222535 0 0 0 0 0.920833 0 0 0 0.36 0"/>
<feBlend mode="normal" in2="BackgroundImageFix" result="effect1_dropShadow_184_4815"/>
<feBlend mode="normal" in="SourceGraphic" in2="effect1_dropShadow_184_4815" result="shape"/>
</filter>
<filter id="filter2_d_184_4815" x="29.0001" y="28" width="79.9993" height="82.9995" filterUnits="userSpaceOnUse" color-interpolation-filters="sRGB">
<feFlood flood-opacity="0" result="BackgroundImageFix"/>
<feColorMatrix in="SourceAlpha" type="matrix" values="0 0 0 0 0 0 0 0 0 0 0 0 0 0 0 0 0 0 127 0" result="hardAlpha"/>
<feOffset dy="6"/>
<feGaussianBlur stdDeviation="11.5"/>
<feComposite in2="hardAlpha" operator="out"/>
<feColorMatrix type="matrix" values="0 0 0 0 0.477319 0 0 0 0 0.222535 0 0 0 0 0.920833 0 0 0 0.36 0"/>
<feBlend mode="normal" in2="BackgroundImageFix" result="effect1_dropShadow_184_4815"/>
<feBlend mode="normal" in="SourceGraphic" in2="effect1_dropShadow_184_4815" result="shape"/>
</filter>
<filter id="filter3_d_184_4815" x="58.0757" y="55.4102" width="33.9237" height="36.5894" filterUnits="userSpaceOnUse" color-interpolation-filters="sRGB">
<feFlood flood-opacity="0" result="BackgroundImageFix"/>
<feColorMatrix in="SourceAlpha" type="matrix" values="0 0 0 0 0 0 0 0 0 0 0 0 0 0 0 0 0 0 127 0" result="hardAlpha"/>
<feOffset dy="4"/>
<feGaussianBlur stdDeviation="3"/>
<feComposite in2="hardAlpha" operator="out"/>
<feColorMatrix type="matrix" values="0 0 0 0 0.419608 0 0 0 0 0.196078 0 0 0 0 0.462745 0 0 0 0.35 0"/>
<feBlend mode="normal" in2="BackgroundImageFix" result="effect1_dropShadow_184_4815"/>
<feBlend mode="normal" in="SourceGraphic" in2="effect1_dropShadow_184_4815" result="shape"/>
</filter>
<linearGradient id="paint0_linear_184_4815" x1="9.49527" y1="150" x2="140.409" y2="146.272" gradientUnits="userSpaceOnUse">
<stop stop-color="#8A8298"/>
<stop offset="1" stop-color="#B566F2"/>
</linearGradient>
<linearGradient id="paint1_linear_184_4815" x1="-37.5047" y1="67.9999" x2="93.4094" y2="64.2723" gradientUnits="userSpaceOnUse">
<stop stop-color="#A47DEA"/>
<stop offset="1" stop-color="#B566F2"/>
</linearGradient>
<linearGradient id="paint2_linear_184_4815" x1="7" y1="24" x2="93.5" y2="82.5" gradientUnits="userSpaceOnUse">
<stop stop-color="white"/>
<stop offset="1" stop-color="white" stop-opacity="0.3"/>
</linearGradient>
<linearGradient id="paint3_linear_184_4815" x1="18" y1="32" x2="131.5" y2="104" gradientUnits="userSpaceOnUse">
<stop stop-color="#B566F2" stop-opacity="0.6"/>
<stop offset="0.171875" stop-color="#B566F2"/>
<stop offset="0.802083" stop-color="#B566F2" stop-opacity="0"/>
</linearGradient>
<linearGradient id="paint4_linear_184_4815" x1="66.3326" y1="59.7362" x2="67.4377" y2="85.1199" gradientUnits="userSpaceOnUse">
<stop stop-color="#8142EF"/>
<stop offset="0.78037" stop-color="#B566F2"/>
</linearGradient>
<linearGradient id="paint5_linear_184_4815" x1="57.4557" y1="47.5888" x2="57.8092" y2="54.7109" gradientUnits="userSpaceOnUse">
<stop stop-color="#8142EF"/>
<stop offset="0.78037" stop-color="#B566F2"/>
</linearGradient>
<linearGradient id="paint6_linear_184_4815" x1="64.983" y1="45.7463" x2="65.8284" y2="53.818" gradientUnits="userSpaceOnUse">
<stop stop-color="#8142EF"/>
<stop offset="0.78037" stop-color="#B566F2"/>
</linearGradient>
<linearGradient id="paint7_linear_184_4815" x1="69.102" y1="50.4089" x2="69.2717" y2="55.9847" gradientUnits="userSpaceOnUse">
<stop stop-color="#8142EF"/>
<stop offset="0.78037" stop-color="#B566F2"/>
</linearGradient>
<linearGradient id="paint8_linear_184_4815" x1="52.8126" y1="54.914" x2="52.853" y2="57.8281" gradientUnits="userSpaceOnUse">
<stop stop-color="#8142EF"/>
<stop offset="0.78037" stop-color="#B566F2"/>
</linearGradient>
<linearGradient id="paint9_linear_184_4815" x1="54.6473" y1="60.4633" x2="54.8164" y2="66.0394" gradientUnits="userSpaceOnUse">
<stop stop-color="#8142EF"/>
<stop offset="0.78037" stop-color="#B566F2"/>
</linearGradient>
<linearGradient id="paint10_linear_184_4815" x1="15.47" y1="36" x2="30.7326" y2="34.4789" gradientUnits="userSpaceOnUse">
<stop stop-color="#8142EF"/>
<stop offset="1" stop-color="#B566F2"/>
</linearGradient>
<linearGradient id="paint11_linear_184_4815" x1="31.7886" y1="36" x2="65.283" y2="28.3702" gradientUnits="userSpaceOnUse">
<stop stop-color="#8142EF"/>
<stop offset="1" stop-color="#B566F2"/>
</linearGradient>
<linearGradient id="paint12_linear_184_4815" x1="15.0158" y1="44" x2="42.6939" y2="38.8773" gradientUnits="userSpaceOnUse">
<stop stop-color="#8142EF"/>
<stop offset="1" stop-color="#B566F2"/>
</linearGradient>
<linearGradient id="paint13_linear_184_4815" x1="14.6372" y1="52" x2="51.831" y2="42.4684" gradientUnits="userSpaceOnUse">
<stop stop-color="#8142EF"/>
<stop offset="1" stop-color="#B566F2"/>
</linearGradient>
<linearGradient id="paint14_linear_184_4815" x1="15.2429" y1="60" x2="36.8256" y2="56.9272" gradientUnits="userSpaceOnUse">
<stop stop-color="#8142EF"/>
<stop offset="1" stop-color="#B566F2"/>
</linearGradient>
<linearGradient id="paint15_linear_184_4815" x1="20.1429" y1="33.7857" x2="24.7579" y2="38.7426" gradientUnits="userSpaceOnUse">
<stop stop-color="white" stop-opacity="0"/>
<stop offset="1" stop-color="#FFF975" stop-opacity="0.4"/>
</linearGradient>
<linearGradient id="paint16_linear_184_4815" x1="42.4694" y1="33.7857" x2="45.7023" y2="41.7226" gradientUnits="userSpaceOnUse">
<stop stop-color="white" stop-opacity="0"/>
<stop offset="1" stop-color="#FFF975" stop-opacity="0.4"/>
</linearGradient>
<linearGradient id="paint17_linear_184_4815" x1="23.6939" y1="41.7857" x2="27.4012" y2="49.1808" gradientUnits="userSpaceOnUse">
<stop stop-color="white" stop-opacity="0"/>
<stop offset="1" stop-color="#FFF975" stop-opacity="0.4"/>
</linearGradient>
<linearGradient id="paint18_linear_184_4815" x1="26.6531" y1="49.7857" x2="29.6152" y2="57.9669" gradientUnits="userSpaceOnUse">
<stop stop-color="white" stop-opacity="0"/>
<stop offset="1" stop-color="#FFF975" stop-opacity="0.4"/>
</linearGradient>
<linearGradient id="paint19_linear_184_4815" x1="21.9184" y1="57.7857" x2="26.1513" y2="64.2807" gradientUnits="userSpaceOnUse">
<stop stop-color="white" stop-opacity="0"/>
<stop offset="1" stop-color="#FFF975" stop-opacity="0.4"/>
</linearGradient>
<clipPath id="clip0_184_4815">
<rect width="100" height="100" rx="8" fill="white"/>
</clipPath>
</defs>
</svg>
