<svg width="100" height="100" viewBox="0 0 100 100" fill="none" xmlns="http://www.w3.org/2000/svg">
<g clip-path="url(#clip0_187_4928)">
<rect width="100" height="100" rx="8" fill="#F9F1FF"/>
<g style="mix-blend-mode:hard-light" filter="url(#filter0_d_187_4928)">
<circle cx="58.5" cy="-6.5" r="59.5" fill="url(#paint0_linear_187_4928)" fill-opacity="0.3" shape-rendering="crispEdges"/>
</g>
<g style="mix-blend-mode:hard-light" filter="url(#filter1_d_187_4928)">
<circle cx="47.5" cy="89.5" r="59.5" fill="url(#paint1_linear_187_4928)" fill-opacity="0.3" shape-rendering="crispEdges"/>
</g>
<rect x="9" y="11" width="82" height="52" rx="4" fill="url(#paint2_linear_187_4928)"/>
<g style="mix-blend-mode:multiply" opacity="0.2">
<rect x="9.5" y="11.5" width="81" height="51" rx="3.5" stroke="url(#paint3_linear_187_4928)"/>
</g>
<g filter="url(#filter2_d_187_4928)">
<g filter="url(#filter3_d_187_4928)">
<rect x="28" y="19" width="44" height="62" rx="2" fill="url(#paint4_linear_187_4928)"/>
</g>
<rect x="30.5" y="21.5" width="39" height="57" rx="0.5" stroke="url(#paint5_linear_187_4928)"/>
<path d="M36 51.7383H63.5624V52.6762H36V51.7383Z" fill="url(#paint6_linear_187_4928)"/>
<path d="M36 47.9932H63.5624V48.9294H36V47.9932Z" fill="url(#paint7_linear_187_4928)"/>
<path d="M36 44.2466H63.5624V45.1845H36V44.2466Z" fill="url(#paint8_linear_187_4928)"/>
<path d="M36 40.5015H63.5624V41.4377H36V40.5015Z" fill="url(#paint9_linear_187_4928)"/>
<path d="M40.7015 36H58.8624V36.9363H40.7015V36Z" fill="url(#paint10_linear_187_4928)"/>
<path d="M38.8423 66.7141V65.7778H39.7672V66.7141H38.8423Z" fill="url(#paint11_linear_187_4928)"/>
<path d="M42.9597 66.714V60.7954H40.7816V60.0088H46.0171V60.7954H43.8375V66.714H42.9597Z" fill="url(#paint12_linear_187_4928)"/>
<path d="M46.939 66.714V60.0088H51.7128V60.7954H47.8152V62.8558H51.4631V63.6424H47.8152V65.9274H51.8698V66.714H46.939Z" fill="url(#paint13_linear_187_4928)"/>
<path d="M52.4099 66.714L54.9648 63.2364L52.713 60.0104H53.7557L54.9617 61.7253C55.2129 62.0804 55.3857 62.3527 55.4862 62.5422C55.6354 62.3081 55.8112 62.0581 56.0138 61.7938L57.3345 60.0088H58.2939L55.9981 63.1966L58.4698 66.714H57.3957L55.7264 64.3224C55.6322 64.1886 55.5411 64.0517 55.4563 63.9179C55.3087 64.1424 55.2035 64.3001 55.1391 64.3892L53.4636 66.714H52.4115H52.4099Z" fill="url(#paint14_linear_187_4928)"/>
<path d="M60.9211 66.714V60.7954H58.7415V60.0088H63.9769V60.7954H61.7989V66.714H60.9211Z" fill="url(#paint15_linear_187_4928)"/>
</g>
<rect opacity="0.3" x="28" y="19" width="44" height="62" rx="2" fill="url(#paint16_linear_187_4928)"/>
</g>
<defs>
<filter id="filter0_d_187_4928" x="-24" y="-83" width="165" height="165" filterUnits="userSpaceOnUse" color-interpolation-filters="sRGB">
<feFlood flood-opacity="0" result="BackgroundImageFix"/>
<feColorMatrix in="SourceAlpha" type="matrix" values="0 0 0 0 0 0 0 0 0 0 0 0 0 0 0 0 0 0 127 0" result="hardAlpha"/>
<feOffset dy="6"/>
<feGaussianBlur stdDeviation="11.5"/>
<feComposite in2="hardAlpha" operator="out"/>
<feColorMatrix type="matrix" values="0 0 0 0 0.477319 0 0 0 0 0.222535 0 0 0 0 0.920833 0 0 0 0.2 0"/>
<feBlend mode="normal" in2="BackgroundImageFix" result="effect1_dropShadow_187_4928"/>
<feBlend mode="normal" in="SourceGraphic" in2="effect1_dropShadow_187_4928" result="shape"/>
</filter>
<filter id="filter1_d_187_4928" x="-35" y="13" width="165" height="165" filterUnits="userSpaceOnUse" color-interpolation-filters="sRGB">
<feFlood flood-opacity="0" result="BackgroundImageFix"/>
<feColorMatrix in="SourceAlpha" type="matrix" values="0 0 0 0 0 0 0 0 0 0 0 0 0 0 0 0 0 0 127 0" result="hardAlpha"/>
<feOffset dy="6"/>
<feGaussianBlur stdDeviation="11.5"/>
<feComposite in2="hardAlpha" operator="out"/>
<feColorMatrix type="matrix" values="0 0 0 0 0.477319 0 0 0 0 0.222535 0 0 0 0 0.920833 0 0 0 0.36 0"/>
<feBlend mode="normal" in2="BackgroundImageFix" result="effect1_dropShadow_187_4928"/>
<feBlend mode="normal" in="SourceGraphic" in2="effect1_dropShadow_187_4928" result="shape"/>
</filter>
<filter id="filter2_d_187_4928" x="22" y="17" width="56" height="74" filterUnits="userSpaceOnUse" color-interpolation-filters="sRGB">
<feFlood flood-opacity="0" result="BackgroundImageFix"/>
<feColorMatrix in="SourceAlpha" type="matrix" values="0 0 0 0 0 0 0 0 0 0 0 0 0 0 0 0 0 0 127 0" result="hardAlpha"/>
<feOffset dy="4"/>
<feGaussianBlur stdDeviation="3"/>
<feComposite in2="hardAlpha" operator="out"/>
<feColorMatrix type="matrix" values="0 0 0 0 0.420786 0 0 0 0 0.196562 0 0 0 0 0.4625 0 0 0 0.3 0"/>
<feBlend mode="normal" in2="BackgroundImageFix" result="effect1_dropShadow_187_4928"/>
<feBlend mode="normal" in="SourceGraphic" in2="effect1_dropShadow_187_4928" result="shape"/>
</filter>
<filter id="filter3_d_187_4928" x="5" y="2" width="90" height="108" filterUnits="userSpaceOnUse" color-interpolation-filters="sRGB">
<feFlood flood-opacity="0" result="BackgroundImageFix"/>
<feColorMatrix in="SourceAlpha" type="matrix" values="0 0 0 0 0 0 0 0 0 0 0 0 0 0 0 0 0 0 127 0" result="hardAlpha"/>
<feOffset dy="6"/>
<feGaussianBlur stdDeviation="11.5"/>
<feComposite in2="hardAlpha" operator="out"/>
<feColorMatrix type="matrix" values="0 0 0 0 0.477319 0 0 0 0 0.222535 0 0 0 0 0.920833 0 0 0 0.36 0"/>
<feBlend mode="normal" in2="BackgroundImageFix" result="effect1_dropShadow_187_4928"/>
<feBlend mode="normal" in="SourceGraphic" in2="effect1_dropShadow_187_4928" result="shape"/>
</filter>
<linearGradient id="paint0_linear_187_4928" x1="-5.50473" y1="52.9999" x2="125.409" y2="49.2723" gradientUnits="userSpaceOnUse">
<stop stop-color="#8A8298"/>
<stop offset="1" stop-color="#B566F2"/>
</linearGradient>
<linearGradient id="paint1_linear_187_4928" x1="-16.5047" y1="149" x2="114.409" y2="145.272" gradientUnits="userSpaceOnUse">
<stop stop-color="#A47DEA"/>
<stop offset="1" stop-color="#B566F2"/>
</linearGradient>
<linearGradient id="paint2_linear_187_4928" x1="7" y1="11" x2="93.5" y2="69.5" gradientUnits="userSpaceOnUse">
<stop stop-color="white"/>
<stop offset="1" stop-color="white" stop-opacity="0.3"/>
</linearGradient>
<linearGradient id="paint3_linear_187_4928" x1="10.5" y1="11" x2="40" y2="111.5" gradientUnits="userSpaceOnUse">
<stop stop-color="#B566F2" stop-opacity="0.6"/>
<stop offset="0.390625" stop-color="#B566F2"/>
<stop offset="1" stop-color="#B566F2" stop-opacity="0"/>
</linearGradient>
<linearGradient id="paint4_linear_187_4928" x1="26.3344" y1="81" x2="74.7591" y2="80.0214" gradientUnits="userSpaceOnUse">
<stop stop-color="#8142EF"/>
<stop offset="1" stop-color="#B566F2"/>
</linearGradient>
<linearGradient id="paint5_linear_187_4928" x1="31.5" y1="20" x2="70" y2="82" gradientUnits="userSpaceOnUse">
<stop stop-color="#E0DAFF"/>
<stop offset="1" stop-color="white" stop-opacity="0"/>
</linearGradient>
<linearGradient id="paint6_linear_187_4928" x1="36.4926" y1="51.6314" x2="36.6635" y2="56.3536" gradientUnits="userSpaceOnUse">
<stop stop-color="white"/>
<stop offset="1" stop-color="white" stop-opacity="0"/>
</linearGradient>
<linearGradient id="paint7_linear_187_4928" x1="36.4926" y1="47.8865" x2="36.663" y2="52.6006" gradientUnits="userSpaceOnUse">
<stop stop-color="white"/>
<stop offset="1" stop-color="white" stop-opacity="0"/>
</linearGradient>
<linearGradient id="paint8_linear_187_4928" x1="36.4926" y1="44.1397" x2="36.6635" y2="48.8619" gradientUnits="userSpaceOnUse">
<stop stop-color="white"/>
<stop offset="1" stop-color="white" stop-opacity="0"/>
</linearGradient>
<linearGradient id="paint9_linear_187_4928" x1="36.4926" y1="40.3948" x2="36.663" y2="45.1089" gradientUnits="userSpaceOnUse">
<stop stop-color="white"/>
<stop offset="1" stop-color="white" stop-opacity="0"/>
</linearGradient>
<linearGradient id="paint10_linear_187_4928" x1="41.0261" y1="35.8933" x2="41.2842" y2="40.5995" gradientUnits="userSpaceOnUse">
<stop stop-color="white"/>
<stop offset="1" stop-color="white" stop-opacity="0"/>
</linearGradient>
<linearGradient id="paint11_linear_187_4928" x1="38.8588" y1="65.6711" x2="41.2125" y2="67.8567" gradientUnits="userSpaceOnUse">
<stop stop-color="white"/>
<stop offset="1" stop-color="white" stop-opacity="0"/>
</linearGradient>
<linearGradient id="paint12_linear_187_4928" x1="40.8752" y1="59.2447" x2="57" y2="71.0793" gradientUnits="userSpaceOnUse">
<stop stop-color="white"/>
<stop offset="1" stop-color="white" stop-opacity="0"/>
</linearGradient>
<linearGradient id="paint13_linear_187_4928" x1="47.0271" y1="59.2447" x2="62.8391" y2="70.1745" gradientUnits="userSpaceOnUse">
<stop stop-color="white"/>
<stop offset="1" stop-color="white" stop-opacity="0"/>
</linearGradient>
<linearGradient id="paint14_linear_187_4928" x1="52.5182" y1="59.2447" x2="69.1983" y2="73.4146" gradientUnits="userSpaceOnUse">
<stop stop-color="white"/>
<stop offset="1" stop-color="white" stop-opacity="0"/>
</linearGradient>
<linearGradient id="paint15_linear_187_4928" x1="58.835" y1="59.2447" x2="74.9599" y2="71.0793" gradientUnits="userSpaceOnUse">
<stop stop-color="white"/>
<stop offset="1" stop-color="white" stop-opacity="0"/>
</linearGradient>
<linearGradient id="paint16_linear_187_4928" x1="26" y1="17" x2="55" y2="62.5" gradientUnits="userSpaceOnUse">
<stop stop-color="#EBE7FF"/>
<stop offset="1" stop-color="#EBE7FF" stop-opacity="0"/>
</linearGradient>
<clipPath id="clip0_187_4928">
<rect width="100" height="100" rx="8" fill="white"/>
</clipPath>
</defs>
</svg>
