<svg width="10" height="10" viewBox="0 0 10 10" fill="none" xmlns="http://www.w3.org/2000/svg">
<g clip-path="url(#clip0_1645_11253)">
<path d="M2.5 1.25H4.375V6.25H3.125V7.5H6.875V6.25H5.625V1.25H7.5V2.5H8.75V0.625C8.75 0.459263 8.68415 0.300223 8.56697 0.183036C8.44978 0.0658482 8.29074 0 8.125 0H1.875C1.70926 0 1.55022 0.0658482 1.43304 0.183036C1.31585 0.300223 1.25 0.459263 1.25 0.625V2.5H2.5V1.25Z" fill="#8C8C8C"/>
<path d="M8.75 6.875V8.75H1.25V6.875H0V8.75C0 9.08147 0.131696 9.39955 0.366071 9.63393C0.600446 9.8683 0.918527 10 1.25 10H8.75C9.08147 10 9.39955 9.8683 9.63393 9.63393C9.8683 9.39955 10 9.08147 10 8.75V6.875H8.75Z" fill="#8C8C8C"/>
</g>
<defs>
<clipPath id="clip0_1645_11253">
<rect width="10" height="10" fill="white"/>
</clipPath>
</defs>
</svg>
