<svg width="525" height="146" viewBox="0 0 525 146" fill="none" xmlns="http://www.w3.org/2000/svg">
<path d="M36.1191 78.9176C64.181 75.1332 62.3102 97.6141 99.2584 100.894C136.207 104.174 146.496 81.215 163.333 74.6553C180.17 68.0957 187.653 38.2042 215.715 40.2226C243.777 42.2409 257.808 62.4644 281.193 64.9874C304.578 67.5103 309.255 84.2425 331.237 96.6049C353.219 108.967 373.33 110.481 400.924 107.958C428.518 105.435 436.001 79.9268 449.097 78.9176C462.192 77.9084 473.885 90.0725 485.109 92.8478C496.334 95.623 499.608 107.958 523.461 107.958" stroke="#ECE9F1" stroke-width="2.15638" stroke-linecap="round" stroke-linejoin="round"/>
<path d="M0.602273 9V8.48864L2.52273 6.38636C2.74811 6.14015 2.93371 5.92614 3.07955 5.74432C3.22538 5.56061 3.33333 5.38826 3.40341 5.22727C3.47538 5.06439 3.51136 4.89394 3.51136 4.71591C3.51136 4.51136 3.46212 4.33428 3.36364 4.18466C3.26705 4.03504 3.13447 3.91951 2.96591 3.83807C2.79735 3.75663 2.60795 3.71591 2.39773 3.71591C2.17424 3.71591 1.97917 3.76231 1.8125 3.85511C1.64773 3.94602 1.51989 4.07386 1.42898 4.23864C1.33996 4.40341 1.29545 4.59659 1.29545 4.81818H0.625C0.625 4.47727 0.703598 4.17803 0.860795 3.92045C1.01799 3.66288 1.23201 3.46212 1.50284 3.31818C1.77557 3.17424 2.08144 3.10227 2.42045 3.10227C2.76136 3.10227 3.06345 3.17424 3.3267 3.31818C3.58996 3.46212 3.7964 3.65625 3.94602 3.90057C4.09564 4.14489 4.17045 4.41667 4.17045 4.71591C4.17045 4.92992 4.13163 5.1392 4.05398 5.34375C3.97822 5.5464 3.84564 5.77273 3.65625 6.02273C3.46875 6.27083 3.20833 6.57386 2.875 6.93182L1.56818 8.32955V8.375H4.27273V9H0.602273ZM7.37784 9.07955C7.1392 9.07576 6.90057 9.0303 6.66193 8.94318C6.4233 8.85606 6.20549 8.70928 6.00852 8.50284C5.81155 8.29451 5.65341 8.01326 5.53409 7.65909C5.41477 7.30303 5.35511 6.85606 5.35511 6.31818C5.35511 5.80303 5.40341 5.34659 5.5 4.94886C5.59659 4.54924 5.73674 4.21307 5.92045 3.94034C6.10417 3.66572 6.32576 3.45739 6.58523 3.31534C6.84659 3.1733 7.1411 3.10227 7.46875 3.10227C7.79451 3.10227 8.08428 3.16761 8.33807 3.2983C8.59375 3.42708 8.80208 3.60701 8.96307 3.83807C9.12405 4.06913 9.22822 4.33523 9.27557 4.63636H8.58239C8.51799 4.375 8.39299 4.15814 8.20739 3.9858C8.02178 3.81345 7.77557 3.72727 7.46875 3.72727C7.01799 3.72727 6.66288 3.9233 6.40341 4.31534C6.14583 4.70739 6.0161 5.25758 6.0142 5.96591H6.05966C6.16572 5.80492 6.29167 5.66761 6.4375 5.55398C6.58523 5.43845 6.74811 5.34943 6.92614 5.28693C7.10417 5.22443 7.29261 5.19318 7.49148 5.19318C7.82481 5.19318 8.12973 5.27652 8.40625 5.44318C8.68277 5.60795 8.90436 5.83617 9.07102 6.12784C9.23769 6.41761 9.32102 6.75 9.32102 7.125C9.32102 7.48485 9.24053 7.81439 9.07955 8.11364C8.91856 8.41098 8.69223 8.64773 8.40057 8.82386C8.1108 8.99811 7.76989 9.08333 7.37784 9.07955ZM7.37784 8.45455C7.61648 8.45455 7.83049 8.39489 8.01989 8.27557C8.21117 8.15625 8.36174 7.99621 8.47159 7.79545C8.58333 7.5947 8.6392 7.37121 8.6392 7.125C8.6392 6.88447 8.58523 6.66572 8.47727 6.46875C8.37121 6.26989 8.22443 6.11174 8.03693 5.99432C7.85133 5.87689 7.6392 5.81818 7.40057 5.81818C7.22064 5.81818 7.05303 5.85417 6.89773 5.92614C6.74242 5.99621 6.60606 6.0928 6.48864 6.21591C6.37311 6.33902 6.2822 6.48011 6.21591 6.6392C6.14962 6.7964 6.11648 6.96212 6.11648 7.13636C6.11648 7.36742 6.17045 7.58333 6.27841 7.78409C6.38826 7.98485 6.53788 8.14678 6.72727 8.26989C6.91856 8.39299 7.13542 8.45455 7.37784 8.45455ZM12.3359 9.07955C11.9079 9.07955 11.5433 8.96307 11.2422 8.73011C10.9411 8.49527 10.7109 8.1553 10.5518 7.71023C10.3928 7.26326 10.3132 6.72348 10.3132 6.09091C10.3132 5.46212 10.3928 4.92519 10.5518 4.48011C10.7128 4.03314 10.9439 3.69223 11.245 3.45739C11.5481 3.22064 11.9117 3.10227 12.3359 3.10227C12.7602 3.10227 13.1229 3.22064 13.424 3.45739C13.727 3.69223 13.9581 4.03314 14.1172 4.48011C14.2782 4.92519 14.3587 5.46212 14.3587 6.09091C14.3587 6.72348 14.2791 7.26326 14.12 7.71023C13.9609 8.1553 13.7308 8.49527 13.4297 8.73011C13.1286 8.96307 12.764 9.07955 12.3359 9.07955ZM12.3359 8.45455C12.7602 8.45455 13.0897 8.25 13.3246 7.84091C13.5594 7.43182 13.6768 6.84848 13.6768 6.09091C13.6768 5.58712 13.6229 5.15814 13.5149 4.80398C13.4089 4.44981 13.2554 4.17992 13.0547 3.99432C12.8558 3.80871 12.6162 3.71591 12.3359 3.71591C11.9155 3.71591 11.5869 3.9233 11.3501 4.33807C11.1134 4.75095 10.995 5.33523 10.995 6.09091C10.995 6.5947 11.0481 7.02273 11.1541 7.375C11.2602 7.72727 11.4126 7.99527 11.6115 8.17898C11.8123 8.36269 12.0537 8.45455 12.3359 8.45455Z" fill="#A2A3A5"/>
<path d="M0.602273 48.0405V47.5292L2.52273 45.4269C2.74811 45.1807 2.93371 44.9667 3.07955 44.7848C3.22538 44.6011 3.33333 44.4288 3.40341 44.2678C3.47538 44.1049 3.51136 43.9345 3.51136 43.7564C3.51136 43.5519 3.46212 43.3748 3.36364 43.2252C3.26705 43.0756 3.13447 42.96 2.96591 42.8786C2.79735 42.7972 2.60795 42.7564 2.39773 42.7564C2.17424 42.7564 1.97917 42.8028 1.8125 42.8956C1.64773 42.9865 1.51989 43.1144 1.42898 43.2792C1.33996 43.4439 1.29545 43.6371 1.29545 43.8587H0.625C0.625 43.5178 0.703598 43.2186 0.860795 42.961C1.01799 42.7034 1.23201 42.5026 1.50284 42.3587C1.77557 42.2148 2.08144 42.1428 2.42045 42.1428C2.76136 42.1428 3.06345 42.2148 3.3267 42.3587C3.58996 42.5026 3.7964 42.6968 3.94602 42.9411C4.09564 43.1854 4.17045 43.4572 4.17045 43.7564C4.17045 43.9705 4.13163 44.1797 4.05398 44.3843C3.97822 44.5869 3.84564 44.8133 3.65625 45.0633C3.46875 45.3114 3.20833 45.6144 2.875 45.9723L1.56818 47.3701V47.4155H4.27273V48.0405H0.602273ZM5.44602 48.0405V47.5292L7.36648 45.4269C7.59186 45.1807 7.77746 44.9667 7.9233 44.7848C8.06913 44.6011 8.17708 44.4288 8.24716 44.2678C8.31913 44.1049 8.35511 43.9345 8.35511 43.7564C8.35511 43.5519 8.30587 43.3748 8.20739 43.2252C8.1108 43.0756 7.97822 42.96 7.80966 42.8786C7.6411 42.7972 7.4517 42.7564 7.24148 42.7564C7.01799 42.7564 6.82292 42.8028 6.65625 42.8956C6.49148 42.9865 6.36364 43.1144 6.27273 43.2792C6.18371 43.4439 6.1392 43.6371 6.1392 43.8587H5.46875C5.46875 43.5178 5.54735 43.2186 5.70455 42.961C5.86174 42.7034 6.07576 42.5026 6.34659 42.3587C6.61932 42.2148 6.92519 42.1428 7.2642 42.1428C7.60511 42.1428 7.9072 42.2148 8.17045 42.3587C8.43371 42.5026 8.64015 42.6968 8.78977 42.9411C8.93939 43.1854 9.0142 43.4572 9.0142 43.7564C9.0142 43.9705 8.97538 44.1797 8.89773 44.3843C8.82197 44.5869 8.68939 44.8133 8.5 45.0633C8.3125 45.3114 8.05208 45.6144 7.71875 45.9723L6.41193 47.3701V47.4155H9.11648V48.0405H5.44602ZM12.1875 48.1201C11.7595 48.1201 11.3949 48.0036 11.0938 47.7706C10.7926 47.5358 10.5625 47.1958 10.4034 46.7508C10.2443 46.3038 10.1648 45.764 10.1648 45.1314C10.1648 44.5026 10.2443 43.9657 10.4034 43.5206C10.5644 43.0737 10.7955 42.7328 11.0966 42.4979C11.3996 42.2612 11.7633 42.1428 12.1875 42.1428C12.6117 42.1428 12.9744 42.2612 13.2756 42.4979C13.5786 42.7328 13.8097 43.0737 13.9688 43.5206C14.1297 43.9657 14.2102 44.5026 14.2102 45.1314C14.2102 45.764 14.1307 46.3038 13.9716 46.7508C13.8125 47.1958 13.5824 47.5358 13.2812 47.7706C12.9801 48.0036 12.6155 48.1201 12.1875 48.1201ZM12.1875 47.4951C12.6117 47.4951 12.9413 47.2905 13.1761 46.8814C13.411 46.4723 13.5284 45.889 13.5284 45.1314C13.5284 44.6276 13.4744 44.1987 13.3665 43.8445C13.2604 43.4903 13.107 43.2205 12.9062 43.0348C12.7074 42.8492 12.4678 42.7564 12.1875 42.7564C11.767 42.7564 11.4384 42.9638 11.2017 43.3786C10.965 43.7915 10.8466 44.3758 10.8466 45.1314C10.8466 45.6352 10.8996 46.0633 11.0057 46.4155C11.1117 46.7678 11.2642 47.0358 11.4631 47.2195C11.6638 47.4032 11.9053 47.4951 12.1875 47.4951Z" fill="#A2A3A5"/>
<path d="M2.64773 81.2629V87.0811H1.94318V82.0015H1.90909L0.488636 82.9447V82.2288L1.94318 81.2629H2.64773ZM6.18466 87.1606C5.79451 87.1606 5.44981 87.0915 5.15057 86.9532C4.85322 86.8131 4.62121 86.6208 4.45455 86.3765C4.28788 86.1303 4.20549 85.85 4.20739 85.5356C4.20549 85.2894 4.25379 85.0621 4.35227 84.8538C4.45076 84.6436 4.58523 84.4684 4.75568 84.3282C4.92803 84.1862 5.12027 84.0962 5.33239 84.0583V84.0242C5.05398 83.9523 4.83239 83.796 4.66761 83.5555C4.50284 83.3131 4.4214 83.0375 4.4233 82.7288C4.4214 82.4333 4.49621 82.1691 4.64773 81.9362C4.79924 81.7032 5.00758 81.5195 5.27273 81.385C5.53977 81.2506 5.84375 81.1833 6.18466 81.1833C6.52178 81.1833 6.82292 81.2506 7.08807 81.385C7.35322 81.5195 7.56155 81.7032 7.71307 81.9362C7.86648 82.1691 7.94413 82.4333 7.94602 82.7288C7.94413 83.0375 7.85985 83.3131 7.69318 83.5555C7.52841 83.796 7.30966 83.9523 7.03693 84.0242V84.0583C7.24716 84.0962 7.43655 84.1862 7.60511 84.3282C7.77367 84.4684 7.90814 84.6436 8.00852 84.8538C8.1089 85.0621 8.16004 85.2894 8.16193 85.5356C8.16004 85.85 8.07481 86.1303 7.90625 86.3765C7.73958 86.6208 7.50758 86.8131 7.21023 86.9532C6.91477 87.0915 6.57292 87.1606 6.18466 87.1606ZM6.18466 86.5356C6.44792 86.5356 6.67519 86.493 6.86648 86.4078C7.05777 86.3225 7.20549 86.2023 7.30966 86.047C7.41383 85.8917 7.46686 85.7098 7.46875 85.5015C7.46686 85.2818 7.41004 85.0877 7.2983 84.9191C7.18655 84.7506 7.03409 84.618 6.84091 84.5214C6.64962 84.4248 6.43087 84.3765 6.18466 84.3765C5.93655 84.3765 5.71496 84.4248 5.51989 84.5214C5.3267 84.618 5.17424 84.7506 5.0625 84.9191C4.95265 85.0877 4.89867 85.2818 4.90057 85.5015C4.89867 85.7098 4.94886 85.8917 5.05114 86.047C5.1553 86.2023 5.30398 86.3225 5.49716 86.4078C5.69034 86.493 5.91951 86.5356 6.18466 86.5356ZM6.18466 83.7742C6.39299 83.7742 6.57765 83.7326 6.73864 83.6492C6.90152 83.5659 7.02936 83.4494 7.12216 83.2998C7.21496 83.1502 7.26231 82.975 7.2642 82.7742C7.26231 82.5773 7.21591 82.4059 7.125 82.26C7.03409 82.1123 6.90814 81.9987 6.74716 81.9191C6.58617 81.8377 6.39867 81.797 6.18466 81.797C5.96686 81.797 5.77652 81.8377 5.61364 81.9191C5.45076 81.9987 5.32481 82.1123 5.2358 82.26C5.14678 82.4059 5.10322 82.5773 5.10511 82.7742C5.10322 82.975 5.14773 83.1502 5.23864 83.2998C5.33144 83.4494 5.45928 83.5659 5.62216 83.6492C5.78504 83.7326 5.97254 83.7742 6.18466 83.7742ZM11.1484 87.1606C10.7204 87.1606 10.3558 87.0441 10.0547 86.8112C9.75355 86.5763 9.52344 86.2364 9.36435 85.7913C9.20526 85.3443 9.12571 84.8045 9.12571 84.172C9.12571 83.5432 9.20526 83.0062 9.36435 82.5612C9.52533 82.1142 9.75639 81.7733 10.0575 81.5384C10.3606 81.3017 10.7242 81.1833 11.1484 81.1833C11.5727 81.1833 11.9354 81.3017 12.2365 81.5384C12.5395 81.7733 12.7706 82.1142 12.9297 82.5612C13.0907 83.0062 13.1712 83.5432 13.1712 84.172C13.1712 84.8045 13.0916 85.3443 12.9325 85.7913C12.7734 86.2364 12.5433 86.5763 12.2422 86.8112C11.9411 87.0441 11.5765 87.1606 11.1484 87.1606ZM11.1484 86.5356C11.5727 86.5356 11.9022 86.3311 12.1371 85.922C12.3719 85.5129 12.4893 84.9295 12.4893 84.172C12.4893 83.6682 12.4354 83.2392 12.3274 82.885C12.2214 82.5309 12.0679 82.261 11.8672 82.0754C11.6683 81.8898 11.4287 81.797 11.1484 81.797C10.728 81.797 10.3994 82.0044 10.1626 82.4191C9.9259 82.832 9.80753 83.4163 9.80753 84.172C9.80753 84.6758 9.86056 85.1038 9.96662 85.4561C10.0727 85.8083 10.2251 86.0763 10.424 86.26C10.6248 86.4437 10.8662 86.5356 11.1484 86.5356Z" fill="#A2A3A5"/>
<path d="M2.64773 120.303V126.121H1.94318V121.042H1.90909L0.488636 121.985V121.269L1.94318 120.303H2.64773ZM4.18466 124.928V124.349L6.74148 120.303H7.16193V121.201H6.87784L4.94602 124.258V124.303H8.3892V124.928H4.18466ZM6.9233 126.121V124.752V124.482V120.303H7.59375V126.121H6.9233ZM11.3516 126.201C10.9235 126.201 10.5589 126.084 10.2578 125.851C9.95668 125.617 9.72656 125.277 9.56747 124.832C9.40838 124.385 9.32884 123.845 9.32884 123.212C9.32884 122.583 9.40838 122.047 9.56747 121.601C9.72846 121.154 9.95952 120.814 10.2607 120.579C10.5637 120.342 10.9273 120.224 11.3516 120.224C11.7758 120.224 12.1385 120.342 12.4396 120.579C12.7427 120.814 12.9737 121.154 13.1328 121.601C13.2938 122.047 13.3743 122.583 13.3743 123.212C13.3743 123.845 13.2947 124.385 13.1357 124.832C12.9766 125.277 12.7464 125.617 12.4453 125.851C12.1442 126.084 11.7796 126.201 11.3516 126.201ZM11.3516 125.576C11.7758 125.576 12.1054 125.371 12.3402 124.962C12.575 124.553 12.6925 123.97 12.6925 123.212C12.6925 122.708 12.6385 122.279 12.5305 121.925C12.4245 121.571 12.2711 121.301 12.0703 121.116C11.8714 120.93 11.6319 120.837 11.3516 120.837C10.9311 120.837 10.6025 121.045 10.3658 121.459C10.129 121.872 10.0107 122.457 10.0107 123.212C10.0107 123.716 10.0637 124.144 10.1697 124.496C10.2758 124.849 10.4283 125.117 10.6271 125.3C10.8279 125.484 11.0694 125.576 11.3516 125.576Z" fill="#A2A3A5"/>
<line x1="35.5801" y1="5.6953" x2="524" y2="5.6953" stroke="#ECE9F1" stroke-width="0.539095"/>
<line x1="35.5801" y1="44.7358" x2="524" y2="44.7358" stroke="#ECE9F1" stroke-width="0.539095"/>
<line x1="35.5801" y1="83.7754" x2="524" y2="83.7754" stroke="#ECE9F1" stroke-width="0.539095"/>
<line x1="35.5801" y1="122.816" x2="524" y2="122.816" stroke="#ECE9F1" stroke-width="0.539095"/>
<path d="M35.5801 114.298C57.039 110.955 74.685 90.5705 100.289 87.1441C113.936 85.3179 124.869 88.8723 137.067 94.3951C149.265 99.9179 146.877 102.303 174.309 106.56C196.948 110.074 202.87 72.1923 225.053 73.6477C247.236 75.1032 257.496 29.5577 280.917 33.3597C304.338 37.1616 309.017 27.3318 331.033 45.9614C353.048 64.591 373.388 21.1666 401.025 17.3647C428.662 13.5627 435.859 53.916 448.975 52.3953C462.091 50.8745 473.9 79.6289 485.142 83.811C496.384 87.9932 499.572 72.8008 523.461 72.8008" stroke="#6949FF" stroke-width="2.15638" stroke-linecap="round" stroke-linejoin="round"/>
<path d="M100.289 87.1441C74.685 90.5705 57.039 110.955 35.5801 114.298V122.543H523.461V72.8008C499.572 72.8008 496.384 87.9932 485.142 83.811C473.9 79.6289 462.091 50.8745 448.975 52.3953C435.859 53.916 428.662 13.5627 401.025 17.3647C373.388 21.1666 353.048 64.591 331.033 45.9614C309.017 27.3318 304.338 37.1616 280.917 33.3597C257.496 29.5577 247.236 75.1032 225.053 73.6477C202.869 72.1923 196.948 110.074 174.309 106.56C146.877 102.303 149.264 99.9179 137.067 94.3951C124.869 88.8723 113.936 85.3179 100.289 87.1441Z" fill="url(#paint0_linear_493_2995)"/>
<path d="M38.2278 137.112V142.93H37.5233V137.851H37.4892L36.0687 138.794V138.078L37.5233 137.112H38.2278Z" fill="#A2A3A5"/>
<path d="M116.775 143.01C116.442 143.01 116.141 142.944 115.874 142.811C115.607 142.679 115.393 142.497 115.232 142.266C115.071 142.035 114.983 141.771 114.968 141.476H115.65C115.676 141.739 115.796 141.957 116.008 142.129C116.222 142.3 116.478 142.385 116.775 142.385C117.014 142.385 117.226 142.329 117.411 142.217C117.599 142.106 117.746 141.952 117.852 141.757C117.96 141.56 118.014 141.338 118.014 141.09C118.014 140.836 117.958 140.609 117.846 140.411C117.736 140.21 117.585 140.052 117.391 139.936C117.198 139.821 116.978 139.762 116.729 139.76C116.551 139.758 116.369 139.786 116.181 139.842C115.994 139.897 115.839 139.968 115.718 140.055L115.059 139.976L115.411 137.112H118.434V137.737H116.002L115.798 139.453H115.832C115.951 139.358 116.101 139.28 116.281 139.217C116.461 139.155 116.648 139.124 116.843 139.124C117.199 139.124 117.516 139.209 117.795 139.379C118.075 139.548 118.295 139.779 118.454 140.072C118.615 140.366 118.695 140.701 118.695 141.078C118.695 141.449 118.612 141.781 118.445 142.072C118.281 142.362 118.053 142.591 117.764 142.76C117.474 142.927 117.144 143.01 116.775 143.01Z" fill="#A2A3A5"/>
<path d="M196.324 137.112V142.93H195.619V137.851H195.585L194.164 138.794V138.078L195.619 137.112H196.324ZM199.895 143.01C199.467 143.01 199.102 142.893 198.801 142.661C198.5 142.426 198.27 142.086 198.11 141.641C197.951 141.194 197.872 140.654 197.872 140.021C197.872 139.393 197.951 138.856 198.11 138.411C198.271 137.964 198.502 137.623 198.804 137.388C199.107 137.151 199.47 137.033 199.895 137.033C200.319 137.033 200.681 137.151 200.983 137.388C201.286 137.623 201.517 137.964 201.676 138.411C201.837 138.856 201.917 139.393 201.917 140.021C201.917 140.654 201.838 141.194 201.679 141.641C201.52 142.086 201.289 142.426 200.988 142.661C200.687 142.893 200.323 143.01 199.895 143.01ZM199.895 142.385C200.319 142.385 200.648 142.18 200.883 141.771C201.118 141.362 201.235 140.779 201.235 140.021C201.235 139.518 201.181 139.089 201.074 138.734C200.967 138.38 200.814 138.11 200.613 137.925C200.414 137.739 200.175 137.646 199.895 137.646C199.474 137.646 199.145 137.854 198.909 138.268C198.672 138.681 198.554 139.266 198.554 140.021C198.554 140.525 198.607 140.953 198.713 141.305C198.819 141.658 198.971 141.926 199.17 142.109C199.371 142.293 199.612 142.385 199.895 142.385Z" fill="#A2A3A5"/>
<path d="M277.254 137.112V142.93H276.55V137.851H276.516L275.095 138.794V138.078L276.55 137.112H277.254ZM280.746 143.01C280.412 143.01 280.112 142.944 279.845 142.811C279.578 142.679 279.364 142.497 279.203 142.266C279.042 142.035 278.954 141.771 278.939 141.476H279.621C279.647 141.739 279.766 141.957 279.979 142.129C280.193 142.3 280.448 142.385 280.746 142.385C280.984 142.385 281.196 142.329 281.382 142.217C281.57 142.106 281.716 141.952 281.822 141.757C281.93 141.56 281.984 141.338 281.984 141.09C281.984 140.836 281.928 140.609 281.817 140.411C281.707 140.21 281.555 140.052 281.362 139.936C281.169 139.821 280.948 139.762 280.7 139.76C280.522 139.758 280.339 139.786 280.152 139.842C279.964 139.897 279.81 139.968 279.689 140.055L279.03 139.976L279.382 137.112H282.405V137.737H279.973L279.768 139.453H279.802C279.922 139.358 280.071 139.28 280.251 139.217C280.431 139.155 280.619 139.124 280.814 139.124C281.17 139.124 281.487 139.209 281.766 139.379C282.046 139.548 282.266 139.779 282.425 140.072C282.586 140.366 282.666 140.701 282.666 141.078C282.666 141.449 282.583 141.781 282.416 142.072C282.251 142.362 282.024 142.591 281.734 142.76C281.445 142.927 281.115 143.01 280.746 143.01Z" fill="#A2A3A5"/>
<path d="M354.68 143V142.489L356.601 140.386C356.826 140.14 357.012 139.926 357.158 139.744C357.304 139.561 357.411 139.388 357.482 139.227C357.554 139.064 357.589 138.894 357.589 138.716C357.589 138.511 357.54 138.334 357.442 138.185C357.345 138.035 357.213 137.92 357.044 137.838C356.875 137.757 356.686 137.716 356.476 137.716C356.252 137.716 356.057 137.762 355.891 137.855C355.726 137.946 355.598 138.074 355.507 138.239C355.418 138.403 355.374 138.597 355.374 138.818H354.703C354.703 138.477 354.782 138.178 354.939 137.92C355.096 137.663 355.31 137.462 355.581 137.318C355.854 137.174 356.16 137.102 356.499 137.102C356.839 137.102 357.142 137.174 357.405 137.318C357.668 137.462 357.875 137.656 358.024 137.901C358.174 138.145 358.249 138.417 358.249 138.716C358.249 138.93 358.21 139.139 358.132 139.344C358.056 139.546 357.924 139.773 357.734 140.023C357.547 140.271 357.286 140.574 356.953 140.932L355.646 142.33V142.375H358.351V143H354.68ZM361.422 143.08C360.994 143.08 360.629 142.963 360.328 142.73C360.027 142.495 359.797 142.155 359.638 141.71C359.479 141.263 359.399 140.723 359.399 140.091C359.399 139.462 359.479 138.925 359.638 138.48C359.799 138.033 360.03 137.692 360.331 137.457C360.634 137.221 360.998 137.102 361.422 137.102C361.846 137.102 362.209 137.221 362.51 137.457C362.813 137.692 363.044 138.033 363.203 138.48C363.364 138.925 363.445 139.462 363.445 140.091C363.445 140.723 363.365 141.263 363.206 141.71C363.047 142.155 362.817 142.495 362.516 142.73C362.214 142.963 361.85 143.08 361.422 143.08ZM361.422 142.455C361.846 142.455 362.176 142.25 362.411 141.841C362.645 141.432 362.763 140.848 362.763 140.091C362.763 139.587 362.709 139.158 362.601 138.804C362.495 138.45 362.341 138.18 362.141 137.994C361.942 137.809 361.702 137.716 361.422 137.716C361.001 137.716 360.673 137.923 360.436 138.338C360.199 138.751 360.081 139.335 360.081 140.091C360.081 140.595 360.134 141.023 360.24 141.375C360.346 141.727 360.499 141.995 360.697 142.179C360.898 142.363 361.14 142.455 361.422 142.455Z" fill="#A2A3A5"/>
<path d="M436.335 142.93V142.419L438.255 140.317C438.481 140.071 438.666 139.857 438.812 139.675C438.958 139.491 439.066 139.319 439.136 139.158C439.208 138.995 439.244 138.824 439.244 138.646C439.244 138.442 439.195 138.265 439.096 138.115C438.999 137.965 438.867 137.85 438.698 137.768C438.53 137.687 438.34 137.646 438.13 137.646C437.907 137.646 437.712 137.693 437.545 137.786C437.38 137.876 437.252 138.004 437.161 138.169C437.072 138.334 437.028 138.527 437.028 138.749H436.357C436.357 138.408 436.436 138.108 436.593 137.851C436.75 137.593 436.964 137.393 437.235 137.249C437.508 137.105 437.814 137.033 438.153 137.033C438.494 137.033 438.796 137.105 439.059 137.249C439.322 137.393 439.529 137.587 439.678 137.831C439.828 138.075 439.903 138.347 439.903 138.646C439.903 138.86 439.864 139.07 439.786 139.274C439.711 139.477 439.578 139.703 439.389 139.953C439.201 140.201 438.941 140.504 438.607 140.862L437.301 142.26V142.305H440.005V142.93H436.335ZM442.997 143.01C442.663 143.01 442.363 142.944 442.096 142.811C441.829 142.679 441.615 142.497 441.454 142.266C441.293 142.035 441.205 141.771 441.19 141.476H441.872C441.898 141.739 442.017 141.957 442.23 142.129C442.444 142.3 442.699 142.385 442.997 142.385C443.235 142.385 443.447 142.329 443.633 142.217C443.82 142.106 443.967 141.952 444.073 141.757C444.181 141.56 444.235 141.338 444.235 141.09C444.235 140.836 444.179 140.609 444.068 140.411C443.958 140.21 443.806 140.052 443.613 139.936C443.42 139.821 443.199 139.762 442.951 139.76C442.773 139.758 442.59 139.786 442.403 139.842C442.215 139.897 442.061 139.968 441.94 140.055L441.281 139.976L441.633 137.112H444.656V137.737H442.224L442.019 139.453H442.053C442.173 139.358 442.322 139.28 442.502 139.217C442.682 139.155 442.87 139.124 443.065 139.124C443.421 139.124 443.738 139.209 444.017 139.379C444.297 139.548 444.517 139.779 444.676 140.072C444.837 140.366 444.917 140.701 444.917 141.078C444.917 141.449 444.834 141.781 444.667 142.072C444.502 142.362 444.275 142.591 443.985 142.76C443.695 142.927 443.366 143.01 442.997 143.01Z" fill="#A2A3A5"/>
<path d="M516.474 143.08C516.099 143.08 515.765 143.015 515.472 142.886C515.18 142.758 514.948 142.579 514.776 142.349C514.605 142.118 514.512 141.85 514.497 141.545H515.213C515.228 141.733 515.293 141.895 515.406 142.031C515.52 142.166 515.669 142.27 515.852 142.344C516.036 142.418 516.24 142.455 516.463 142.455C516.713 142.455 516.935 142.411 517.128 142.324C517.321 142.237 517.473 142.116 517.582 141.96C517.692 141.805 517.747 141.625 517.747 141.42C517.747 141.206 517.694 141.018 517.588 140.855C517.482 140.69 517.327 140.562 517.122 140.469C516.918 140.376 516.668 140.33 516.372 140.33H515.906V139.705H516.372C516.603 139.705 516.806 139.663 516.98 139.58C517.156 139.496 517.294 139.379 517.392 139.227C517.492 139.076 517.543 138.898 517.543 138.693C517.543 138.496 517.499 138.325 517.412 138.179C517.325 138.033 517.202 137.92 517.043 137.838C516.885 137.757 516.7 137.716 516.486 137.716C516.285 137.716 516.096 137.753 515.918 137.827C515.741 137.899 515.598 138.004 515.486 138.142C515.374 138.278 515.313 138.443 515.304 138.636H514.622C514.634 138.331 514.725 138.064 514.898 137.835C515.07 137.604 515.295 137.424 515.574 137.295C515.854 137.167 516.162 137.102 516.497 137.102C516.857 137.102 517.166 137.175 517.423 137.321C517.681 137.465 517.879 137.655 518.017 137.892C518.155 138.129 518.224 138.384 518.224 138.659C518.224 138.987 518.138 139.266 517.966 139.497C517.795 139.728 517.563 139.888 517.27 139.977V140.023C517.637 140.083 517.924 140.24 518.131 140.491C518.337 140.741 518.44 141.051 518.44 141.42C518.44 141.737 518.354 142.021 518.182 142.273C518.011 142.523 517.778 142.72 517.483 142.864C517.188 143.008 516.851 143.08 516.474 143.08ZM521.5 143.08C521.072 143.08 520.707 142.963 520.406 142.73C520.105 142.495 519.875 142.155 519.716 141.71C519.557 141.263 519.477 140.723 519.477 140.091C519.477 139.462 519.557 138.925 519.716 138.48C519.877 138.033 520.108 137.692 520.409 137.457C520.712 137.221 521.076 137.102 521.5 137.102C521.924 137.102 522.287 137.221 522.588 137.457C522.891 137.692 523.122 138.033 523.281 138.48C523.442 138.925 523.523 139.462 523.523 140.091C523.523 140.723 523.443 141.263 523.284 141.71C523.125 142.155 522.895 142.495 522.594 142.73C522.293 142.963 521.928 143.08 521.5 143.08ZM521.5 142.455C521.924 142.455 522.254 142.25 522.489 141.841C522.723 141.432 522.841 140.848 522.841 140.091C522.841 139.587 522.787 139.158 522.679 138.804C522.573 138.45 522.42 138.18 522.219 137.994C522.02 137.809 521.78 137.716 521.5 137.716C521.08 137.716 520.751 137.923 520.514 138.338C520.277 138.751 520.159 139.335 520.159 140.091C520.159 140.595 520.212 141.023 520.318 141.375C520.424 141.727 520.577 141.995 520.776 142.179C520.976 142.363 521.218 142.455 521.5 142.455Z" fill="#A2A3A5"/>
<defs>
<linearGradient id="paint0_linear_493_2995" x1="279.52" y1="17.1118" x2="279.52" y2="166.645" gradientUnits="userSpaceOnUse">
<stop stop-color="#7459D9" stop-opacity="0.1"/>
<stop offset="0.998978" stop-color="white" stop-opacity="0"/>
</linearGradient>
</defs>
</svg>
