<svg width="233" height="42" viewBox="0 0 233 42" fill="none" xmlns="http://www.w3.org/2000/svg">
<g opacity="0.4">
<path fill-rule="evenodd" clip-rule="evenodd" d="M214.515 24.9998L215.695 23.8178C216.073 23.4398 216.281 22.9378 216.281 22.4038V17.7268C216.281 16.3698 216.871 15.0728 217.901 14.1708C218.939 13.2608 220.261 12.8608 221.638 13.0418C223.965 13.3508 225.72 15.4548 225.72 17.9368V22.4038C225.72 22.9378 225.928 23.4398 226.305 23.8168L227.486 24.9998H214.515ZM222.999 27.3409C222.999 28.2399 222.083 28.9999 220.999 28.9999C219.915 28.9999 218.999 28.2399 218.999 27.3409V26.9999H222.999V27.3409ZM229.52 24.2078L227.719 22.4038V17.9368C227.719 14.4558 225.217 11.4988 221.899 11.0598C219.977 10.8038 218.037 11.3908 216.582 12.6668C215.118 13.9488 214.28 15.7928 214.28 17.7268L214.279 22.4038L212.478 24.2078C212.009 24.6778 211.87 25.3768 212.124 25.9898C212.379 26.6038 212.972 26.9998 213.636 26.9998H216.999V27.3408C216.999 29.3588 218.793 30.9998 220.999 30.9998C223.205 30.9998 224.999 29.3588 224.999 27.3408V26.9998H228.362C229.026 26.9998 229.618 26.6038 229.872 25.9908C230.127 25.3768 229.989 24.6768 229.52 24.2078Z" fill="#B566F2"/>
</g>
<g opacity="0.4">
<path fill-rule="evenodd" clip-rule="evenodd" d="M172.22 15C171.356 15 170.546 15.334 169.94 15.941C168.682 17.201 168.682 19.252 169.941 20.514L177 27.585L184.06 20.514C185.319 19.252 185.319 17.201 184.06 15.941C182.848 14.726 180.712 14.728 179.5 15.941L177.708 17.736C177.332 18.113 176.668 18.113 176.292 17.736L174.5 15.94C173.894 15.334 173.085 15 172.22 15ZM177 30C176.735 30 176.48 29.895 176.293 29.706L168.525 21.926C166.489 19.886 166.489 16.567 168.525 14.527C169.509 13.543 170.821 13 172.22 13C173.619 13 174.932 13.543 175.915 14.527L177 15.614L178.085 14.528C179.069 13.543 180.381 13 181.781 13C183.179 13 184.492 13.543 185.475 14.527C187.512 16.567 187.512 19.886 185.476 21.926L177.708 29.707C177.52 29.895 177.266 30 177 30Z" fill="#B566F2"/>
</g>
<g opacity="0.4">
<path fill-rule="evenodd" clip-rule="evenodd" d="M128 19.9993C128 19.4473 128.448 18.9993 129 18.9993C129.552 18.9993 130 19.4473 130 19.9993C130 20.5513 129.552 20.9993 129 20.9993C128.448 20.9993 128 20.5513 128 19.9993ZM133 18.9993C132.448 18.9993 132 19.4473 132 19.9993C132 20.5513 132.448 20.9993 133 20.9993C133.552 20.9993 134 20.5513 134 19.9993C134 19.4473 133.552 18.9993 133 18.9993ZM137 18.9993C136.448 18.9993 136 19.4473 136 19.9993C136 20.5513 136.448 20.9993 137 20.9993C137.552 20.9993 138 20.5513 138 19.9993C138 19.4473 137.552 18.9993 137 18.9993ZM140.899 21.2942C140.392 24.5482 137.769 27.2472 134.52 27.8562C132.951 28.1522 131.353 27.9832 129.903 27.3692C129.492 27.1952 129.067 27.1072 128.65 27.1072C128.46 27.1072 128.272 27.1252 128.087 27.1622L125.275 27.7242L125.838 24.9072C125.956 24.3222 125.884 23.6962 125.631 23.0972C125.017 21.6472 124.849 20.0502 125.144 18.4802C125.753 15.2312 128.451 12.6082 131.706 12.1012C134.296 11.6982 136.829 12.5142 138.657 14.3422C140.486 16.1712 141.303 18.7052 140.899 21.2942ZM140.072 12.9282C137.787 10.6442 134.627 9.62517 131.398 10.1242C127.321 10.7602 123.941 14.0442 123.178 18.1112C122.81 20.0692 123.022 22.0632 123.789 23.8762C123.886 24.1072 123.916 24.3222 123.878 24.5152L123.02 28.8032C122.954 29.1312 123.057 29.4702 123.294 29.7062C123.483 29.8962 123.738 29.9992 124.001 29.9992C124.066 29.9992 124.131 29.9932 124.197 29.9802L128.48 29.1232C128.726 29.0762 128.964 29.1452 129.123 29.2112C130.938 29.9782 132.932 30.1892 134.888 29.8222C138.956 29.0592 142.24 25.6792 142.876 21.6022C143.378 18.3752 142.357 15.2132 140.072 12.9282Z" fill="#B566F2"/>
</g>
<g opacity="0.4">
<rect x="1" y="1" width="100" height="40" rx="8" stroke="#B566F2" stroke-width="2"/>
<path d="M35.1341 16.8182H37.3912L40.414 24.196H40.5333L43.556 16.8182H45.8131V27H44.0432V20.005H43.9488L41.1349 26.9702H39.8124L36.9985 19.9901H36.904V27H35.1341V16.8182ZM51.0731 27.1491C50.3273 27.1491 49.681 26.9851 49.1341 26.657C48.5873 26.3288 48.163 25.8698 47.8614 25.2798C47.5631 24.6899 47.414 24.0005 47.414 23.2116C47.414 22.4228 47.5631 21.7318 47.8614 21.1385C48.163 20.5452 48.5873 20.0845 49.1341 19.7564C49.681 19.4283 50.3273 19.2642 51.0731 19.2642C51.8188 19.2642 52.4651 19.4283 53.012 19.7564C53.5589 20.0845 53.9814 20.5452 54.2797 21.1385C54.5814 21.7318 54.7322 22.4228 54.7322 23.2116C54.7322 24.0005 54.5814 24.6899 54.2797 25.2798C53.9814 25.8698 53.5589 26.3288 53.012 26.657C52.4651 26.9851 51.8188 27.1491 51.0731 27.1491ZM51.083 25.7074C51.4874 25.7074 51.8254 25.5964 52.0972 25.3743C52.369 25.1489 52.5712 24.8473 52.7037 24.4695C52.8396 24.0916 52.9076 23.6707 52.9076 23.2067C52.9076 22.7393 52.8396 22.3168 52.7037 21.9389C52.5712 21.5578 52.369 21.2545 52.0972 21.0291C51.8254 20.8037 51.4874 20.6911 51.083 20.6911C50.6687 20.6911 50.324 20.8037 50.0489 21.0291C49.7771 21.2545 49.5733 21.5578 49.4374 21.9389C49.3048 22.3168 49.2385 22.7393 49.2385 23.2067C49.2385 23.6707 49.3048 24.0916 49.4374 24.4695C49.5733 24.8473 49.7771 25.1489 50.0489 25.3743C50.324 25.5964 50.6687 25.7074 51.083 25.7074ZM56.2597 27V19.3636H58.0047V20.6364H58.0843C58.2235 20.1955 58.4621 19.8558 58.8002 19.6172C59.1415 19.3752 59.531 19.2543 59.9685 19.2543C60.0679 19.2543 60.1789 19.2592 60.3016 19.2692C60.4275 19.2758 60.5319 19.2874 60.6148 19.304V20.9595C60.5386 20.933 60.4176 20.9098 60.2519 20.8899C60.0895 20.8667 59.932 20.8551 59.7796 20.8551C59.4514 20.8551 59.1565 20.9264 58.8946 21.0689C58.6361 21.2081 58.4323 21.402 58.2831 21.6506C58.134 21.8991 58.0594 22.1858 58.0594 22.5107V27H56.2597ZM64.8767 27.1491C64.1111 27.1491 63.4498 26.9901 62.893 26.6719C62.3395 26.3504 61.9136 25.8963 61.6153 25.3097C61.317 24.7197 61.1679 24.0253 61.1679 23.2266C61.1679 22.4411 61.317 21.7517 61.6153 21.1584C61.9169 20.5618 62.3379 20.0978 62.8781 19.7663C63.4184 19.4316 64.0531 19.2642 64.7822 19.2642C65.2529 19.2642 65.697 19.3404 66.1146 19.4929C66.5355 19.642 66.9068 19.8741 67.2282 20.1889C67.5531 20.5038 67.8083 20.9048 67.9939 21.392C68.1795 21.8759 68.2723 22.4527 68.2723 23.1222V23.674H62.0131V22.4609H66.5471C66.5438 22.1162 66.4693 21.8097 66.3234 21.5412C66.1776 21.2694 65.9738 21.0556 65.7119 20.8999C65.4534 20.7441 65.1518 20.6662 64.8071 20.6662C64.4392 20.6662 64.116 20.7557 63.8376 20.9347C63.5592 21.1103 63.3421 21.3423 63.1863 21.6307C63.0339 21.9157 62.956 22.2289 62.9527 22.5703V23.6293C62.9527 24.0734 63.0339 24.4545 63.1963 24.7727C63.3587 25.0876 63.5857 25.3295 63.8774 25.4986C64.1691 25.6643 64.5104 25.7472 64.9015 25.7472C65.1634 25.7472 65.4004 25.7107 65.6125 25.6378C65.8246 25.5616 66.0086 25.4505 66.1643 25.3047C66.3201 25.1589 66.4378 24.9782 66.5173 24.7628L68.1977 24.9517C68.0916 25.3958 67.8895 25.7836 67.5912 26.1151C67.2962 26.4432 66.9184 26.6984 66.4577 26.8807C65.997 27.0597 65.47 27.1491 64.8767 27.1491Z" fill="#B566F2"/>
</g>
</svg>
