<svg width="24" height="24" viewBox="0 0 24 24" fill="none" xmlns="http://www.w3.org/2000/svg">
<g opacity="0.8" clip-path="url(#clip0_1643_11419)">
<path d="M12 2.41693C14.7369 2.41693 17.3619 3.42656 19.2973 5.22374C21.2327 7.02092 22.32 9.45842 22.32 11.9998C22.32 14.5412 21.2327 16.9787 19.2973 18.7758C17.3619 20.573 14.7369 21.5826 12 21.5826C9.26314 21.5826 6.63814 20.573 4.70271 18.7758C2.76729 16.9787 1.68 14.5412 1.68 11.9998C1.68 9.45842 2.76729 7.02092 4.70271 5.22374C6.63814 3.42656 9.26314 2.41693 12 2.41693ZM12 0.856934C8.81743 0.856934 5.76514 2.03091 3.51471 4.1206C1.26429 6.21028 0 9.04455 0 11.9998C0 14.955 1.26429 17.7893 3.51471 19.879C5.76514 21.9687 8.81743 23.1426 12 23.1426C15.1826 23.1426 18.2349 21.9687 20.4853 19.879C22.7357 17.7893 24 14.955 24 11.9998C24 9.04455 22.7357 6.21028 20.4853 4.1206C18.2349 2.03091 15.1826 0.856934 12 0.856934Z" fill="#1F1F1F"/>
<path d="M12.1899 6.42847C12.6168 6.46985 13.0406 6.53472 13.4593 6.62227C14.7386 6.95895 15.4993 7.90808 15.5953 9.16961C15.6896 9.99219 15.3043 10.7993 14.5852 11.2868C14.2445 11.5319 13.8866 11.7548 13.5438 11.9955C13.0376 12.3035 12.7466 12.8384 12.7805 13.3995C12.789 13.5985 12.7256 13.7943 12.6005 13.9559C12.4753 14.1174 12.2953 14.2352 12.0892 14.2909C11.8702 14.3693 11.6293 14.3777 11.4043 14.3152C11.1793 14.2527 10.983 14.1226 10.8463 13.9455C10.7568 13.8058 10.7079 13.647 10.7049 13.4843C10.6702 12.4615 11.1823 11.4889 12.0729 10.8856C12.4582 10.6134 12.8216 10.3153 13.1602 9.99418C13.3218 9.81749 13.4199 9.59861 13.4409 9.36779C13.4962 8.73703 13.0595 8.33151 12.3562 8.28932C11.5068 8.23799 10.7915 8.44294 10.2922 9.14056C10.188 9.30531 10.032 9.43584 9.84561 9.51583C9.65875 9.59543 9.45046 9.6201 9.24818 9.58667C8.52818 9.47524 8.21875 8.93163 8.51361 8.30524C8.82261 7.69477 9.35404 7.20568 10.0136 6.92353C10.692 6.61392 11.4348 6.44518 12.1903 6.42886L12.1899 6.42847Z" fill="#1F1F1F"/>
<path d="M12.9073 16.4302C12.912 17.1457 12.48 17.5711 11.724 17.5711C10.968 17.5711 10.464 17.1612 10.4614 16.5615C10.4614 15.7302 10.8621 15.3159 11.6614 15.2936C12.312 15.2757 12.9887 15.6458 12.9073 16.4302Z" fill="#1F1F1F"/>
</g>
<defs>
<clipPath id="clip0_1643_11419">
<rect width="24" height="22.2857" fill="white" transform="translate(0 0.856934)"/>
</clipPath>
</defs>
</svg>
