
<svg width="24" height="24" viewBox="0 0 24 24" fill="none" xmlns="http://www.w3.org/2000/svg">
<g opacity="0.8" clip-path="url(#clip0_1644_11255)">
<path d="M12 1.68C14.7369 1.68 17.3619 2.76729 19.2973 4.70271C21.2327 6.63814 22.32 9.26314 22.32 12C22.32 14.7369 21.2327 17.3619 19.2973 19.2973C17.3619 21.2327 14.7369 22.32 12 22.32C9.26314 22.32 6.63814 21.2327 4.70271 19.2973C2.76729 17.3619 1.68 14.7369 1.68 12C1.68 9.26314 2.76729 6.63814 4.70271 4.70271C6.63814 2.76729 9.26314 1.68 12 1.68ZM12 0C8.81743 0 5.76514 1.26429 3.51471 3.51471C1.26429 5.76514 0 8.81743 0 12C0 15.1826 1.26429 18.2349 3.51471 20.4853C5.76514 22.7357 8.81743 24 12 24C15.1826 24 18.2349 22.7357 20.4853 20.4853C22.7357 18.2349 24 15.1826 24 12C24 8.81743 22.7357 5.76514 20.4853 3.51471C18.2349 1.26429 15.1826 0 12 0Z" fill="#1F1F1F"/>
<path d="M12.19 6C12.6169 6.04457 13.0407 6.11443 13.4594 6.20871C14.7387 6.57129 15.4994 7.59343 15.5954 8.952C15.6897 9.83786 15.3044 10.707 14.5853 11.232C14.2446 11.496 13.8867 11.736 13.5439 11.9953C13.0377 12.327 12.7467 12.903 12.7806 13.5073C12.7892 13.7216 12.7257 13.9324 12.6006 14.1064C12.4754 14.2804 12.2954 14.4073 12.0893 14.4673C11.8703 14.5517 11.6294 14.5607 11.4044 14.4934C11.1794 14.4261 10.9832 14.286 10.8464 14.0953C10.7569 13.9449 10.708 13.7739 10.705 13.5986C10.6703 12.4971 11.1824 11.4497 12.073 10.8C12.4583 10.5069 12.8217 10.1859 13.1603 9.84C13.3219 9.64971 13.42 9.414 13.441 9.16543C13.4963 8.48614 13.0596 8.04943 12.3563 8.004C11.5069 7.94871 10.7916 8.16943 10.2923 8.92071C10.1882 9.09814 10.0322 9.23871 9.84573 9.32486C9.65887 9.41057 9.45059 9.43714 9.2483 9.40114C8.5283 9.28114 8.21887 8.69571 8.51373 8.02114C8.82273 7.36371 9.35416 6.837 10.0137 6.53314C10.6922 6.19971 11.4349 6.018 12.1904 6.00043L12.19 6Z" fill="#1F1F1F"/>
<path d="M12.9073 16.7713C12.912 17.5419 12.48 18 11.724 18C10.968 18 10.464 17.5586 10.4614 16.9127C10.4614 16.0174 10.8621 15.5713 11.6614 15.5473C12.312 15.528 12.9887 15.9266 12.9073 16.7713Z" fill="#1F1F1F"/>
</g>
<defs>
<clipPath id="clip0_1644_11255">
<rect width="24" height="24" fill="white"/>
</clipPath>
</defs>
</svg>
