
<svg width="15" height="12" viewBox="0 0 15 12" fill="none" xmlns="http://www.w3.org/2000/svg">
<path d="M0.99636 4.48756L5.25258 6.7395L6.30206 11.2618C6.3798 11.631 6.71019 11.9079 7.09889 11.9817C7.15719 11.9817 7.19606 12.0002 7.25437 12.0002C7.60419 12.0002 7.91515 11.834 8.09006 11.5387L14.3675 1.38654C14.5619 1.07274 14.5424 0.666656 14.3092 0.37132C14.076 0.0759837 13.6873 -0.0532257 13.2986 0.0206083L1.24901 2.78938C0.860316 2.88168 0.568794 3.17701 0.51049 3.56464C0.452185 3.95227 0.646533 4.30298 0.99636 4.48756ZM13.1237 1.20195L7.35154 10.5789L6.43811 6.62875L8.40102 5.24436L7.70137 4.3399L5.73845 5.72428L2.00697 3.74922L13.1237 1.20195Z" fill="white"/>
</svg>
