<svg width="20" height="20" viewBox="0 0 20 20" fill="none" xmlns="http://www.w3.org/2000/svg">
<path d="M17.2583 13.9248L15.2417 11.9082C15.1642 11.8301 15.072 11.7681 14.9705 11.7258C14.8689 11.6835 14.76 11.6617 14.65 11.6617C14.54 11.6617 14.4311 11.6835 14.3295 11.7258C14.228 11.7681 14.1358 11.8301 14.0583 11.9082L11.075 14.8915C10.9978 14.9694 10.9367 15.0617 10.8952 15.1632C10.8537 15.2648 10.8327 15.3735 10.8333 15.4832V17.4998C10.8333 17.7209 10.9211 17.9328 11.0774 18.0891C11.2337 18.2454 11.4457 18.3332 11.6667 18.3332H13.6833C13.793 18.3338 13.9017 18.3128 14.0033 18.2713C14.1048 18.2298 14.1971 18.1687 14.275 18.0915L17.2583 15.1082C17.3364 15.0307 17.3984 14.9385 17.4407 14.837C17.4831 14.7354 17.5048 14.6265 17.5048 14.5165C17.5048 14.4065 17.4831 14.2976 17.4407 14.196C17.3984 14.0945 17.3364 14.0023 17.2583 13.9248ZM13.3333 16.6665H12.5V15.8332L14.65 13.6832L15.4833 14.5165L13.3333 16.6665ZM8.33333 16.6665H5C4.77899 16.6665 4.56702 16.5787 4.41074 16.4224C4.25446 16.2661 4.16667 16.0542 4.16667 15.8332V4.1665C4.16667 3.94549 4.25446 3.73353 4.41074 3.57725C4.56702 3.42097 4.77899 3.33317 5 3.33317H9.16667V5.83317C9.16667 6.49621 9.43006 7.1321 9.8989 7.60094C10.3677 8.06978 11.0036 8.33317 11.6667 8.33317H14.1667V9.1665C14.1667 9.38752 14.2545 9.59948 14.4107 9.75576C14.567 9.91204 14.779 9.99984 15 9.99984C15.221 9.99984 15.433 9.91204 15.5893 9.75576C15.7455 9.59948 15.8333 9.38752 15.8333 9.1665V7.49984C15.8333 7.49984 15.8333 7.49984 15.8333 7.44984C15.8247 7.37328 15.8079 7.29786 15.7833 7.22484V7.14984C15.7433 7.06415 15.6898 6.98539 15.625 6.9165L10.625 1.9165C10.5561 1.85168 10.4774 1.79824 10.3917 1.75817C10.3668 1.75464 10.3415 1.75464 10.3167 1.75817L10.05 1.6665H5C4.33696 1.6665 3.70107 1.9299 3.23223 2.39874C2.76339 2.86758 2.5 3.50346 2.5 4.1665V15.8332C2.5 16.4962 2.76339 17.1321 3.23223 17.6009C3.70107 18.0698 4.33696 18.3332 5 18.3332H8.33333C8.55435 18.3332 8.76631 18.2454 8.92259 18.0891C9.07887 17.9328 9.16667 17.7209 9.16667 17.4998C9.16667 17.2788 9.07887 17.0669 8.92259 16.9106C8.76631 16.7543 8.55435 16.6665 8.33333 16.6665ZM10.8333 4.50817L12.9917 6.6665H11.6667C11.4457 6.6665 11.2337 6.57871 11.0774 6.42243C10.9211 6.26615 10.8333 6.05418 10.8333 5.83317V4.50817ZM6.66667 11.6665H11.6667C11.8877 11.6665 12.0996 11.5787 12.2559 11.4224C12.4122 11.2661 12.5 11.0542 12.5 10.8332C12.5 10.6122 12.4122 10.4002 12.2559 10.2439C12.0996 10.0876 11.8877 9.99984 11.6667 9.99984H6.66667C6.44565 9.99984 6.23369 10.0876 6.07741 10.2439C5.92113 10.4002 5.83333 10.6122 5.83333 10.8332C5.83333 11.0542 5.92113 11.2661 6.07741 11.4224C6.23369 11.5787 6.44565 11.6665 6.66667 11.6665ZM6.66667 8.33317H7.5C7.72101 8.33317 7.93298 8.24537 8.08926 8.08909C8.24554 7.93281 8.33333 7.72085 8.33333 7.49984C8.33333 7.27882 8.24554 7.06686 8.08926 6.91058C7.93298 6.7543 7.72101 6.6665 7.5 6.6665H6.66667C6.44565 6.6665 6.23369 6.7543 6.07741 6.91058C5.92113 7.06686 5.83333 7.27882 5.83333 7.49984C5.83333 7.72085 5.92113 7.93281 6.07741 8.08909C6.23369 8.24537 6.44565 8.33317 6.66667 8.33317ZM8.33333 13.3332H6.66667C6.44565 13.3332 6.23369 13.421 6.07741 13.5772C5.92113 13.7335 5.83333 13.9455 5.83333 14.1665C5.83333 14.3875 5.92113 14.5995 6.07741 14.7558C6.23369 14.912 6.44565 14.9998 6.66667 14.9998H8.33333C8.55435 14.9998 8.76631 14.912 8.92259 14.7558C9.07887 14.5995 9.16667 14.3875 9.16667 14.1665C9.16667 13.9455 9.07887 13.7335 8.92259 13.5772C8.76631 13.421 8.55435 13.3332 8.33333 13.3332Z" fill="#CDCDCD"/>
</svg>
